<svg xmlns="http://www.w3.org/2000/svg" xmlns:xlink="http://www.w3.org/1999/xlink" width="500" zoomAndPan="magnify" viewBox="0 0 300 350" height="550" preserveAspectRatio="xMidYMid meet" version="1.0"><defs><g/><clipPath id="41bb66f35e"><rect x="0" width="373" y="0" height="42"/></clipPath><clipPath id="dde4bfcb91"><path d="M 127 83 L 244 83 L 244 190.21875 L 127 190.21875 Z M 127 83 " clip-rule="nonzero"/></clipPath><clipPath id="a33052faed"><path d="M 156 113 L 247.734375 113 L 247.734375 190.21875 L 156 190.21875 Z M 156 113 " clip-rule="nonzero"/></clipPath></defs><g transform="matrix(1, 0, 0, 1, 2, 200)"><g clip-path="url(#41bb66f35e)"><g fill="#0057b7" fill-opacity="1"><g transform="translate(1.200272, 31.864251)"><g><path d="M 2.859375 -25 L 20.890625 -25 C 22.679688 -25 24.109375 -24.460938 25.171875 -23.390625 C 26.242188 -22.316406 26.78125 -20.890625 26.78125 -19.109375 L 26.78125 -14.828125 C 26.78125 -13.566406 26.53125 -12.570312 26.03125 -11.84375 C 25.53125 -11.113281 24.972656 -10.5625 24.359375 -10.1875 C 23.640625 -9.75 22.84375 -9.445312 21.96875 -9.28125 L 27.328125 -2.859375 L 27.328125 0 L 22.140625 0 L 15.1875 -8.921875 L 8.578125 -8.921875 L 8.578125 0 L 2.859375 0 Z M 18.75 -13.9375 C 20.300781 -13.9375 21.078125 -14.707031 21.078125 -16.25 L 21.078125 -17.6875 C 21.078125 -19.226562 20.300781 -20 18.75 -20 L 8.578125 -20 L 8.578125 -13.9375 Z M 18.75 -13.9375 "/></g></g></g><g fill="#0057b7" fill-opacity="1"><g transform="translate(35.336946, 31.864251)"><g><path d="M 8.390625 0.359375 C 6.609375 0.359375 5.179688 -0.175781 4.109375 -1.25 C 3.035156 -2.320312 2.5 -3.75 2.5 -5.53125 L 2.5 -19.46875 C 2.5 -21.25 3.035156 -22.675781 4.109375 -23.75 C 5.179688 -24.820312 6.609375 -25.359375 8.390625 -25.359375 L 21.25 -25.359375 C 23.039062 -25.359375 24.46875 -24.820312 25.53125 -23.75 C 26.601562 -22.675781 27.140625 -21.25 27.140625 -19.46875 L 27.140625 -5.53125 C 27.140625 -3.75 26.601562 -2.320312 25.53125 -1.25 C 24.46875 -0.175781 23.039062 0.359375 21.25 0.359375 Z M 19.109375 -4.640625 C 20.660156 -4.640625 21.4375 -5.414062 21.4375 -6.96875 L 21.4375 -18.03125 C 21.4375 -19.582031 20.660156 -20.359375 19.109375 -20.359375 L 10.53125 -20.359375 C 8.988281 -20.359375 8.21875 -19.582031 8.21875 -18.03125 L 8.21875 -6.96875 C 8.21875 -5.414062 8.988281 -4.640625 10.53125 -4.640625 Z M 19.109375 -4.640625 "/></g></g></g><g fill="#0057b7" fill-opacity="1"><g transform="translate(69.830673, 31.864251)"><g><path d="M 8.578125 0.359375 C 6.785156 0.359375 5.351562 -0.175781 4.28125 -1.25 C 3.207031 -2.320312 2.671875 -3.75 2.671875 -5.53125 L 2.671875 -25 L 8.390625 -25 L 8.390625 -6.96875 C 8.390625 -5.414062 9.164062 -4.640625 10.71875 -4.640625 L 19.28125 -4.640625 C 20.832031 -4.640625 21.609375 -5.414062 21.609375 -6.96875 L 21.609375 -25 L 27.328125 -25 L 27.328125 -5.53125 C 27.328125 -3.75 26.789062 -2.320312 25.71875 -1.25 C 24.644531 -0.175781 23.21875 0.359375 21.4375 0.359375 Z M 8.578125 0.359375 "/></g></g></g><g fill="#0057b7" fill-opacity="1"><g transform="translate(104.681464, 31.864251)"><g><path d="M 10 -20 L 0.71875 -20 L 0.71875 -25 L 25 -25 L 25 -21.78125 L 23.21875 -20 L 15.71875 -20 L 15.71875 0 L 10 0 Z M 10 -20 "/></g></g></g><g fill="#0057b7" fill-opacity="1"><g transform="translate(135.247537, 31.864251)"><g><path d="M 2.859375 -25 L 24.28125 -25 L 24.28125 -21.78125 L 22.5 -20 L 8.578125 -20 L 8.578125 -15 L 20.359375 -15 L 20.359375 -10.1875 L 8.578125 -10.1875 L 8.578125 -5 L 24.28125 -5 L 24.28125 0 L 2.859375 0 Z M 2.859375 -25 "/></g></g></g><g fill="#0057b7" fill-opacity="1"><g transform="translate(165.992144, 31.864251)"><g/></g></g><g fill="#0057b7" fill-opacity="1"><g transform="translate(180.847578, 31.864251)"><g><path d="M 2.859375 -25 L 21.25 -25 C 23.039062 -25 24.46875 -24.460938 25.53125 -23.390625 C 26.601562 -22.316406 27.140625 -20.890625 27.140625 -19.109375 L 27.140625 -5.890625 C 27.140625 -4.109375 26.601562 -2.679688 25.53125 -1.609375 C 24.46875 -0.535156 23.039062 0 21.25 0 L 2.859375 0 Z M 19.109375 -5 C 20.660156 -5 21.4375 -5.773438 21.4375 -7.328125 L 21.4375 -17.6875 C 21.4375 -19.226562 20.660156 -20 19.109375 -20 L 8.578125 -20 L 8.578125 -5 Z M 19.109375 -5 "/></g></g></g><g fill="#0057b7" fill-opacity="1"><g transform="translate(215.341305, 31.864251)"><g><path d="M 2.859375 -25 L 8.578125 -25 L 8.578125 0 L 2.859375 0 Z M 2.859375 -25 "/></g></g></g><g fill="#0057b7" fill-opacity="1"><g transform="translate(231.624973, 31.864251)"><g><path d="M 8.390625 0 C 6.609375 0 5.179688 -0.535156 4.109375 -1.609375 C 3.035156 -2.679688 2.5 -4.109375 2.5 -5.890625 L 2.5 -19.109375 C 2.5 -20.890625 3.035156 -22.316406 4.109375 -23.390625 C 5.179688 -24.460938 6.609375 -25 8.390625 -25 L 25 -25 L 25 -21.78125 L 23.21875 -20 L 10.53125 -20 C 8.988281 -20 8.21875 -19.226562 8.21875 -17.6875 L 8.21875 -7.328125 C 8.21875 -5.773438 8.988281 -5 10.53125 -5 L 20.71875 -5 L 20.71875 -13.9375 L 26.4375 -13.9375 L 26.4375 0 Z M 8.390625 0 "/></g></g></g><g fill="#0057b7" fill-opacity="1"><g transform="translate(265.404569, 31.864251)"><g><path d="M 2.859375 -25 L 8.578125 -25 L 8.578125 0 L 2.859375 0 Z M 2.859375 -25 "/></g></g></g><g fill="#0057b7" fill-opacity="1"><g transform="translate(281.688252, 31.864251)"><g><path d="M 10 -20 L 0.71875 -20 L 0.71875 -25 L 25 -25 L 25 -21.78125 L 23.21875 -20 L 15.71875 -20 L 15.71875 0 L 10 0 Z M 10 -20 "/></g></g></g><g fill="#0057b7" fill-opacity="1"><g transform="translate(312.254339, 31.864251)"><g><path d="M 0.53125 -2.859375 L 10.1875 -25 L 17.6875 -25 L 27.328125 -2.859375 L 27.328125 0 L 21.96875 0 L 20 -4.828125 L 7.859375 -4.828125 L 5.890625 0 L 0.53125 0 Z M 18.03125 -9.640625 L 13.9375 -19.828125 L 9.828125 -9.640625 Z M 18.03125 -9.640625 "/></g></g></g><g fill="#0057b7" fill-opacity="1"><g transform="translate(344.962765, 31.864251)"><g><path d="M 2.859375 -25 L 8.578125 -25 L 8.578125 -5.171875 L 23.9375 -5.171875 L 23.9375 0 L 2.859375 0 Z M 2.859375 -25 "/></g></g></g></g></g><g fill="#5a5a5a" fill-opacity="1"><g transform="translate(55.516389, 251.545193)"><g><path d="M 3.265625 -3.859375 L 5.28125 -7.75 L 6.4375 -7.75 L 3.765625 -2.890625 L 3.765625 0 L 2.75 0 L 2.75 -2.890625 L 0.078125 -7.75 L 1.25 -7.75 Z M 3.265625 -3.859375 "/></g></g></g><g fill="#5a5a5a" fill-opacity="1"><g transform="translate(64.387516, 251.545193)"><g><path d="M 6.859375 -3.625 C 6.859375 -2.863281 6.726562 -2.195312 6.46875 -1.625 C 6.21875 -1.0625 5.859375 -0.628906 5.390625 -0.328125 C 4.921875 -0.0351562 4.375 0.109375 3.75 0.109375 C 3.132812 0.109375 2.59375 -0.0390625 2.125 -0.34375 C 1.65625 -0.644531 1.289062 -1.070312 1.03125 -1.625 C 0.769531 -2.175781 0.632812 -2.816406 0.625 -3.546875 L 0.625 -4.109375 C 0.625 -4.859375 0.753906 -5.515625 1.015625 -6.078125 C 1.273438 -6.648438 1.640625 -7.085938 2.109375 -7.390625 C 2.585938 -7.691406 3.128906 -7.84375 3.734375 -7.84375 C 4.359375 -7.84375 4.90625 -7.691406 5.375 -7.390625 C 5.851562 -7.097656 6.21875 -6.664062 6.46875 -6.09375 C 6.726562 -5.53125 6.859375 -4.867188 6.859375 -4.109375 Z M 5.84375 -4.125 C 5.84375 -5.039062 5.65625 -5.742188 5.28125 -6.234375 C 4.914062 -6.722656 4.398438 -6.96875 3.734375 -6.96875 C 3.085938 -6.96875 2.578125 -6.722656 2.203125 -6.234375 C 1.835938 -5.742188 1.648438 -5.0625 1.640625 -4.1875 L 1.640625 -3.625 C 1.640625 -2.726562 1.828125 -2.023438 2.203125 -1.515625 C 2.578125 -1.015625 3.09375 -0.765625 3.75 -0.765625 C 4.40625 -0.765625 4.914062 -1.003906 5.28125 -1.484375 C 5.644531 -1.960938 5.832031 -2.648438 5.84375 -3.546875 Z M 5.84375 -4.125 "/></g></g></g><g fill="#5a5a5a" fill-opacity="1"><g transform="translate(74.204853, 251.545193)"><g><path d="M 6.34375 -7.75 L 6.34375 -2.484375 C 6.34375 -1.742188 6.113281 -1.140625 5.65625 -0.671875 C 5.207031 -0.210938 4.59375 0.0390625 3.8125 0.09375 L 3.53125 0.109375 C 2.6875 0.109375 2.007812 -0.117188 1.5 -0.578125 C 1 -1.035156 0.75 -1.664062 0.75 -2.46875 L 0.75 -7.75 L 1.75 -7.75 L 1.75 -2.5 C 1.75 -1.9375 1.90625 -1.5 2.21875 -1.1875 C 2.53125 -0.882812 2.96875 -0.734375 3.53125 -0.734375 C 4.113281 -0.734375 4.554688 -0.882812 4.859375 -1.1875 C 5.171875 -1.5 5.328125 -1.9375 5.328125 -2.5 L 5.328125 -7.75 Z M 6.34375 -7.75 "/></g></g></g><g fill="#5a5a5a" fill-opacity="1"><g transform="translate(83.596927, 251.545193)"><g><path d="M 3.734375 -3.125 L 1.921875 -3.125 L 1.921875 0 L 0.890625 0 L 0.890625 -7.75 L 3.453125 -7.75 C 4.328125 -7.75 5 -7.546875 5.46875 -7.140625 C 5.9375 -6.742188 6.171875 -6.164062 6.171875 -5.40625 C 6.171875 -4.925781 6.039062 -4.503906 5.78125 -4.140625 C 5.519531 -3.785156 5.160156 -3.519531 4.703125 -3.34375 L 6.515625 -0.0625 L 6.515625 0 L 5.421875 0 Z M 1.921875 -3.96875 L 3.484375 -3.96875 C 3.992188 -3.96875 4.394531 -4.097656 4.6875 -4.359375 C 4.988281 -4.617188 5.140625 -4.96875 5.140625 -5.40625 C 5.140625 -5.882812 5 -6.25 4.71875 -6.5 C 4.4375 -6.757812 4.023438 -6.894531 3.484375 -6.90625 L 1.921875 -6.90625 Z M 1.921875 -3.96875 "/></g></g></g><g fill="#5a5a5a" fill-opacity="1"><g transform="translate(92.632849, 251.545193)"><g/></g></g><g fill="#5a5a5a" fill-opacity="1"><g transform="translate(97.660673, 251.545193)"><g><path d="M 3.734375 -3.125 L 1.921875 -3.125 L 1.921875 0 L 0.890625 0 L 0.890625 -7.75 L 3.453125 -7.75 C 4.328125 -7.75 5 -7.546875 5.46875 -7.140625 C 5.9375 -6.742188 6.171875 -6.164062 6.171875 -5.40625 C 6.171875 -4.925781 6.039062 -4.503906 5.78125 -4.140625 C 5.519531 -3.785156 5.160156 -3.519531 4.703125 -3.34375 L 6.515625 -0.0625 L 6.515625 0 L 5.421875 0 Z M 1.921875 -3.96875 L 3.484375 -3.96875 C 3.992188 -3.96875 4.394531 -4.097656 4.6875 -4.359375 C 4.988281 -4.617188 5.140625 -4.96875 5.140625 -5.40625 C 5.140625 -5.882812 5 -6.25 4.71875 -6.5 C 4.4375 -6.757812 4.023438 -6.894531 3.484375 -6.90625 L 1.921875 -6.90625 Z M 1.921875 -3.96875 "/></g></g></g><g fill="#5a5a5a" fill-opacity="1"><g transform="translate(106.696595, 251.545193)"><g><path d="M 6.859375 -3.625 C 6.859375 -2.863281 6.726562 -2.195312 6.46875 -1.625 C 6.21875 -1.0625 5.859375 -0.628906 5.390625 -0.328125 C 4.921875 -0.0351562 4.375 0.109375 3.75 0.109375 C 3.132812 0.109375 2.59375 -0.0390625 2.125 -0.34375 C 1.65625 -0.644531 1.289062 -1.070312 1.03125 -1.625 C 0.769531 -2.175781 0.632812 -2.816406 0.625 -3.546875 L 0.625 -4.109375 C 0.625 -4.859375 0.753906 -5.515625 1.015625 -6.078125 C 1.273438 -6.648438 1.640625 -7.085938 2.109375 -7.390625 C 2.585938 -7.691406 3.128906 -7.84375 3.734375 -7.84375 C 4.359375 -7.84375 4.90625 -7.691406 5.375 -7.390625 C 5.851562 -7.097656 6.21875 -6.664062 6.46875 -6.09375 C 6.726562 -5.53125 6.859375 -4.867188 6.859375 -4.109375 Z M 5.84375 -4.125 C 5.84375 -5.039062 5.65625 -5.742188 5.28125 -6.234375 C 4.914062 -6.722656 4.398438 -6.96875 3.734375 -6.96875 C 3.085938 -6.96875 2.578125 -6.722656 2.203125 -6.234375 C 1.835938 -5.742188 1.648438 -5.0625 1.640625 -4.1875 L 1.640625 -3.625 C 1.640625 -2.726562 1.828125 -2.023438 2.203125 -1.515625 C 2.578125 -1.015625 3.09375 -0.765625 3.75 -0.765625 C 4.40625 -0.765625 4.914062 -1.003906 5.28125 -1.484375 C 5.644531 -1.960938 5.832031 -2.648438 5.84375 -3.546875 Z M 5.84375 -4.125 "/></g></g></g><g fill="#5a5a5a" fill-opacity="1"><g transform="translate(116.513932, 251.545193)"><g><path d="M 6.34375 -7.75 L 6.34375 -2.484375 C 6.34375 -1.742188 6.113281 -1.140625 5.65625 -0.671875 C 5.207031 -0.210938 4.59375 0.0390625 3.8125 0.09375 L 3.53125 0.109375 C 2.6875 0.109375 2.007812 -0.117188 1.5 -0.578125 C 1 -1.035156 0.75 -1.664062 0.75 -2.46875 L 0.75 -7.75 L 1.75 -7.75 L 1.75 -2.5 C 1.75 -1.9375 1.90625 -1.5 2.21875 -1.1875 C 2.53125 -0.882812 2.96875 -0.734375 3.53125 -0.734375 C 4.113281 -0.734375 4.554688 -0.882812 4.859375 -1.1875 C 5.171875 -1.5 5.328125 -1.9375 5.328125 -2.5 L 5.328125 -7.75 Z M 6.34375 -7.75 "/></g></g></g><g fill="#5a5a5a" fill-opacity="1"><g transform="translate(125.906006, 251.545193)"><g><path d="M 6.25 -6.90625 L 3.765625 -6.90625 L 3.765625 0 L 2.75 0 L 2.75 -6.90625 L 0.265625 -6.90625 L 0.265625 -7.75 L 6.25 -7.75 Z M 6.25 -6.90625 "/></g></g></g><g fill="#5a5a5a" fill-opacity="1"><g transform="translate(134.734607, 251.545193)"><g><path d="M 5.28125 -3.578125 L 1.921875 -3.578125 L 1.921875 -0.828125 L 5.8125 -0.828125 L 5.8125 0 L 0.90625 0 L 0.90625 -7.75 L 5.765625 -7.75 L 5.765625 -6.90625 L 1.921875 -6.90625 L 1.921875 -4.40625 L 5.28125 -4.40625 Z M 5.28125 -3.578125 "/></g></g></g><g fill="#5a5a5a" fill-opacity="1"><g transform="translate(143.254893, 251.545193)"><g/></g></g><g fill="#5a5a5a" fill-opacity="1"><g transform="translate(148.282717, 251.545193)"><g><path d="M 6.25 -6.90625 L 3.765625 -6.90625 L 3.765625 0 L 2.75 0 L 2.75 -6.90625 L 0.265625 -6.90625 L 0.265625 -7.75 L 6.25 -7.75 Z M 6.25 -6.90625 "/></g></g></g><g fill="#5a5a5a" fill-opacity="1"><g transform="translate(157.111318, 251.545193)"><g><path d="M 6.859375 -3.625 C 6.859375 -2.863281 6.726562 -2.195312 6.46875 -1.625 C 6.21875 -1.0625 5.859375 -0.628906 5.390625 -0.328125 C 4.921875 -0.0351562 4.375 0.109375 3.75 0.109375 C 3.132812 0.109375 2.59375 -0.0390625 2.125 -0.34375 C 1.65625 -0.644531 1.289062 -1.070312 1.03125 -1.625 C 0.769531 -2.175781 0.632812 -2.816406 0.625 -3.546875 L 0.625 -4.109375 C 0.625 -4.859375 0.753906 -5.515625 1.015625 -6.078125 C 1.273438 -6.648438 1.640625 -7.085938 2.109375 -7.390625 C 2.585938 -7.691406 3.128906 -7.84375 3.734375 -7.84375 C 4.359375 -7.84375 4.90625 -7.691406 5.375 -7.390625 C 5.851562 -7.097656 6.21875 -6.664062 6.46875 -6.09375 C 6.726562 -5.53125 6.859375 -4.867188 6.859375 -4.109375 Z M 5.84375 -4.125 C 5.84375 -5.039062 5.65625 -5.742188 5.28125 -6.234375 C 4.914062 -6.722656 4.398438 -6.96875 3.734375 -6.96875 C 3.085938 -6.96875 2.578125 -6.722656 2.203125 -6.234375 C 1.835938 -5.742188 1.648438 -5.0625 1.640625 -4.1875 L 1.640625 -3.625 C 1.640625 -2.726562 1.828125 -2.023438 2.203125 -1.515625 C 2.578125 -1.015625 3.09375 -0.765625 3.75 -0.765625 C 4.40625 -0.765625 4.914062 -1.003906 5.28125 -1.484375 C 5.644531 -1.960938 5.832031 -2.648438 5.84375 -3.546875 Z M 5.84375 -4.125 "/></g></g></g><g fill="#5a5a5a" fill-opacity="1"><g transform="translate(166.928655, 251.545193)"><g/></g></g><g fill="#5a5a5a" fill-opacity="1"><g transform="translate(171.956479, 251.545193)"><g><path d="M 0.90625 0 L 0.90625 -7.75 L 3.078125 -7.75 C 3.753906 -7.75 4.347656 -7.597656 4.859375 -7.296875 C 5.378906 -6.992188 5.78125 -6.566406 6.0625 -6.015625 C 6.351562 -5.472656 6.5 -4.84375 6.5 -4.125 L 6.5 -3.640625 C 6.5 -2.910156 6.359375 -2.269531 6.078125 -1.71875 C 5.796875 -1.164062 5.390625 -0.742188 4.859375 -0.453125 C 4.335938 -0.160156 3.734375 -0.0078125 3.046875 0 Z M 1.921875 -6.90625 L 1.921875 -0.828125 L 3 -0.828125 C 3.78125 -0.828125 4.390625 -1.070312 4.828125 -1.5625 C 5.265625 -2.050781 5.484375 -2.75 5.484375 -3.65625 L 5.484375 -4.109375 C 5.484375 -4.984375 5.273438 -5.664062 4.859375 -6.15625 C 4.453125 -6.644531 3.867188 -6.894531 3.109375 -6.90625 Z M 1.921875 -6.90625 "/></g></g></g><g fill="#5a5a5a" fill-opacity="1"><g transform="translate(181.428295, 251.545193)"><g><path d="M 2 0 L 0.96875 0 L 0.96875 -7.75 L 2 -7.75 Z M 2 0 "/></g></g></g><g fill="#5a5a5a" fill-opacity="1"><g transform="translate(186.721908, 251.545193)"><g><path d="M 6.609375 -1.015625 C 6.347656 -0.640625 5.984375 -0.359375 5.515625 -0.171875 C 5.046875 0.015625 4.5 0.109375 3.875 0.109375 C 3.25 0.109375 2.691406 -0.0351562 2.203125 -0.328125 C 1.710938 -0.628906 1.332031 -1.050781 1.0625 -1.59375 C 0.789062 -2.144531 0.65625 -2.78125 0.65625 -3.5 L 0.65625 -4.171875 C 0.65625 -5.335938 0.925781 -6.238281 1.46875 -6.875 C 2.007812 -7.519531 2.773438 -7.84375 3.765625 -7.84375 C 4.566406 -7.84375 5.210938 -7.632812 5.703125 -7.21875 C 6.203125 -6.8125 6.503906 -6.226562 6.609375 -5.46875 L 5.59375 -5.46875 C 5.40625 -6.5 4.796875 -7.015625 3.765625 -7.015625 C 3.078125 -7.015625 2.554688 -6.769531 2.203125 -6.28125 C 1.859375 -5.800781 1.679688 -5.109375 1.671875 -4.203125 L 1.671875 -3.5625 C 1.671875 -2.695312 1.867188 -2.007812 2.265625 -1.5 C 2.660156 -0.988281 3.195312 -0.734375 3.875 -0.734375 C 4.257812 -0.734375 4.59375 -0.773438 4.875 -0.859375 C 5.164062 -0.941406 5.40625 -1.082031 5.59375 -1.28125 L 5.59375 -3.03125 L 3.8125 -3.03125 L 3.8125 -3.859375 L 6.609375 -3.859375 Z M 6.609375 -1.015625 "/></g></g></g><g fill="#5a5a5a" fill-opacity="1"><g transform="translate(196.470145, 251.545193)"><g><path d="M 2 0 L 0.96875 0 L 0.96875 -7.75 L 2 -7.75 Z M 2 0 "/></g></g></g><g fill="#5a5a5a" fill-opacity="1"><g transform="translate(201.763758, 251.545193)"><g><path d="M 6.25 -6.90625 L 3.765625 -6.90625 L 3.765625 0 L 2.75 0 L 2.75 -6.90625 L 0.265625 -6.90625 L 0.265625 -7.75 L 6.25 -7.75 Z M 6.25 -6.90625 "/></g></g></g><g fill="#5a5a5a" fill-opacity="1"><g transform="translate(210.59236, 251.545193)"><g><path d="M 5.171875 -2.015625 L 1.9375 -2.015625 L 1.203125 0 L 0.15625 0 L 3.109375 -7.75 L 4 -7.75 L 6.953125 0 L 5.90625 0 Z M 2.234375 -2.859375 L 4.875 -2.859375 L 3.546875 -6.484375 Z M 2.234375 -2.859375 "/></g></g></g><g fill="#5a5a5a" fill-opacity="1"><g transform="translate(220.02696, 251.545193)"><g><path d="M 1.921875 -0.828125 L 5.59375 -0.828125 L 5.59375 0 L 0.90625 0 L 0.90625 -7.75 L 1.921875 -7.75 Z M 1.921875 -0.828125 "/></g></g></g><g fill="#5a5a5a" fill-opacity="1"><g transform="translate(228.217667, 251.545193)"><g/></g></g><g fill="#5a5a5a" fill-opacity="1"><g transform="translate(233.245491, 251.545193)"><g><path d="M 5.28125 -3.578125 L 1.921875 -3.578125 L 1.921875 -0.828125 L 5.8125 -0.828125 L 5.8125 0 L 0.90625 0 L 0.90625 -7.75 L 5.765625 -7.75 L 5.765625 -6.90625 L 1.921875 -6.90625 L 1.921875 -4.40625 L 5.28125 -4.40625 Z M 5.28125 -3.578125 "/></g></g></g><g fill="#5a5a5a" fill-opacity="1"><g transform="translate(241.765777, 251.545193)"><g><path d="M 3.421875 -4.78125 L 5.28125 -7.75 L 6.484375 -7.75 L 4.03125 -3.90625 L 6.546875 0 L 5.328125 0 L 3.421875 -3.015625 L 1.515625 0 L 0.296875 0 L 2.8125 -3.90625 L 0.359375 -7.75 L 1.5625 -7.75 Z M 3.421875 -4.78125 "/></g></g></g><g fill="#5a5a5a" fill-opacity="1"><g transform="translate(250.923969, 251.545193)"><g><path d="M 6.59375 -2.453125 C 6.5 -1.640625 6.195312 -1.007812 5.6875 -0.5625 C 5.175781 -0.113281 4.5 0.109375 3.65625 0.109375 C 2.738281 0.109375 2.003906 -0.21875 1.453125 -0.875 C 0.898438 -1.53125 0.625 -2.410156 0.625 -3.515625 L 0.625 -4.25 C 0.625 -4.96875 0.753906 -5.597656 1.015625 -6.140625 C 1.273438 -6.691406 1.640625 -7.113281 2.109375 -7.40625 C 2.578125 -7.695312 3.125 -7.84375 3.75 -7.84375 C 4.570312 -7.84375 5.226562 -7.613281 5.71875 -7.15625 C 6.21875 -6.695312 6.507812 -6.0625 6.59375 -5.25 L 5.5625 -5.25 C 5.476562 -5.863281 5.285156 -6.3125 4.984375 -6.59375 C 4.691406 -6.875 4.28125 -7.015625 3.75 -7.015625 C 3.09375 -7.015625 2.578125 -6.769531 2.203125 -6.28125 C 1.835938 -5.800781 1.65625 -5.117188 1.65625 -4.234375 L 1.65625 -3.484375 C 1.65625 -2.640625 1.832031 -1.96875 2.1875 -1.46875 C 2.539062 -0.976562 3.03125 -0.734375 3.65625 -0.734375 C 4.226562 -0.734375 4.664062 -0.859375 4.96875 -1.109375 C 5.269531 -1.367188 5.46875 -1.816406 5.5625 -2.453125 Z M 6.59375 -2.453125 "/></g></g></g><g fill="#5a5a5a" fill-opacity="1"><g transform="translate(260.342616, 251.545193)"><g><path d="M 5.28125 -3.578125 L 1.921875 -3.578125 L 1.921875 -0.828125 L 5.8125 -0.828125 L 5.8125 0 L 0.90625 0 L 0.90625 -7.75 L 5.765625 -7.75 L 5.765625 -6.90625 L 1.921875 -6.90625 L 1.921875 -4.40625 L 5.28125 -4.40625 Z M 5.28125 -3.578125 "/></g></g></g><g fill="#5a5a5a" fill-opacity="1"><g transform="translate(268.862902, 251.545193)"><g><path d="M 1.921875 -0.828125 L 5.59375 -0.828125 L 5.59375 0 L 0.90625 0 L 0.90625 -7.75 L 1.921875 -7.75 Z M 1.921875 -0.828125 "/></g></g></g><g fill="#5a5a5a" fill-opacity="1"><g transform="translate(277.053621, 251.545193)"><g><path d="M 1.921875 -0.828125 L 5.59375 -0.828125 L 5.59375 0 L 0.90625 0 L 0.90625 -7.75 L 1.921875 -7.75 Z M 1.921875 -0.828125 "/></g></g></g><g fill="#5a5a5a" fill-opacity="1"><g transform="translate(285.244317, 251.545193)"><g><path d="M 5.28125 -3.578125 L 1.921875 -3.578125 L 1.921875 -0.828125 L 5.8125 -0.828125 L 5.8125 0 L 0.90625 0 L 0.90625 -7.75 L 5.765625 -7.75 L 5.765625 -6.90625 L 1.921875 -6.90625 L 1.921875 -4.40625 L 5.28125 -4.40625 Z M 5.28125 -3.578125 "/></g></g></g><g fill="#5a5a5a" fill-opacity="1"><g transform="translate(293.764603, 251.545193)"><g><path d="M 6.84375 0 L 5.828125 0 L 1.921875 -5.96875 L 1.921875 0 L 0.90625 0 L 0.90625 -7.75 L 1.921875 -7.75 L 5.828125 -1.75 L 5.828125 -7.75 L 6.84375 -7.75 Z M 6.84375 0 "/></g></g></g><g fill="#5a5a5a" fill-opacity="1"><g transform="translate(303.85836, 251.545193)"><g><path d="M 6.59375 -2.453125 C 6.5 -1.640625 6.195312 -1.007812 5.6875 -0.5625 C 5.175781 -0.113281 4.5 0.109375 3.65625 0.109375 C 2.738281 0.109375 2.003906 -0.21875 1.453125 -0.875 C 0.898438 -1.53125 0.625 -2.410156 0.625 -3.515625 L 0.625 -4.25 C 0.625 -4.96875 0.753906 -5.597656 1.015625 -6.140625 C 1.273438 -6.691406 1.640625 -7.113281 2.109375 -7.40625 C 2.578125 -7.695312 3.125 -7.84375 3.75 -7.84375 C 4.570312 -7.84375 5.226562 -7.613281 5.71875 -7.15625 C 6.21875 -6.695312 6.507812 -6.0625 6.59375 -5.25 L 5.5625 -5.25 C 5.476562 -5.863281 5.285156 -6.3125 4.984375 -6.59375 C 4.691406 -6.875 4.28125 -7.015625 3.75 -7.015625 C 3.09375 -7.015625 2.578125 -6.769531 2.203125 -6.28125 C 1.835938 -5.800781 1.65625 -5.117188 1.65625 -4.234375 L 1.65625 -3.484375 C 1.65625 -2.640625 1.832031 -1.96875 2.1875 -1.46875 C 2.539062 -0.976562 3.03125 -0.734375 3.65625 -0.734375 C 4.226562 -0.734375 4.664062 -0.859375 4.96875 -1.109375 C 5.269531 -1.367188 5.46875 -1.816406 5.5625 -2.453125 Z M 6.59375 -2.453125 "/></g></g></g><g fill="#5a5a5a" fill-opacity="1"><g transform="translate(313.277007, 251.545193)"><g><path d="M 5.28125 -3.578125 L 1.921875 -3.578125 L 1.921875 -0.828125 L 5.8125 -0.828125 L 5.8125 0 L 0.90625 0 L 0.90625 -7.75 L 5.765625 -7.75 L 5.765625 -6.90625 L 1.921875 -6.90625 L 1.921875 -4.40625 L 5.28125 -4.40625 Z M 5.28125 -3.578125 "/></g></g></g><g clip-path="url(#dde4bfcb91)"><path fill="#ff6f3c" d="M 145.945312 190.078125 L 145.945312 175.027344 L 145.871094 175.027344 L 145.871094 103.433594 C 146.300781 103.292969 146.492188 103.179688 146.679688 103.179688 C 164.367188 103.164062 182.066406 102.898438 199.746094 103.246094 C 210.007812 103.449219 217.578125 108.804688 221.582031 118.253906 C 225.539062 127.597656 223.832031 136.367188 217.292969 144.164062 C 216.730469 144.835938 216.207031 145.542969 215.945312 145.882812 C 220.660156 150.535156 225.167969 154.992188 229.757812 159.523438 C 229.582031 159.621094 229.785156 159.554688 229.929688 159.425781 C 230.304688 159.085938 230.683594 158.738281 231.019531 158.363281 C 243.492188 144.402344 246.984375 128.375 239.929688 111.101562 C 232.777344 93.609375 218.898438 84.023438 199.964844 83.550781 C 176.1875 82.964844 152.386719 83.390625 128.59375 83.386719 C 128.089844 83.386719 127.585938 83.429688 127.027344 83.476562 L 127.027344 190.078125 Z M 145.945312 190.078125 " fill-opacity="1" fill-rule="nonzero"/></g><g clip-path="url(#a33052faed)"><path fill="#ff6f3c" d="M 174.300781 190.078125 L 174.300781 147.15625 C 179.609375 152.417969 184.949219 157.703125 190.273438 162.972656 C 194.347656 167 198.40625 171.023438 202.457031 175.023438 L 202.203125 175.023438 L 217.105469 190.078125 L 247.96875 190.078125 C 228.445312 170.644531 208.914062 151.210938 189.300781 131.695312 L 206.609375 131.695312 L 206.609375 113.394531 L 156.574219 113.394531 L 156.574219 190.078125 Z M 174.300781 190.078125 " fill-opacity="1" fill-rule="nonzero"/></g><path fill="#ff6f3c" d="M 174.425781 146.957031 C 187.847656 160.382812 201.273438 174.414062 215.0625 188.015625 " fill-opacity="1" fill-rule="nonzero"/></svg>