<svg xmlns="http://www.w3.org/2000/svg" xmlns:xlink="http://www.w3.org/1999/xlink" width="400"  viewBox="0 0 800 600" height="500" preserveAspectRatio="xMidYMid meet" version="1.0"><defs><g/><clipPath id="8a3f29bb9a"><path d="M 268.453125 181.160156 L 521 181.160156 L 521 412.160156 L 268.453125 412.160156 Z M 268.453125 181.160156 " clip-rule="nonzero"/></clipPath><clipPath id="0e8071e8f8"><path d="M 332 246 L 530 246 L 530 412.160156 L 332 412.160156 Z M 332 246 " clip-rule="nonzero"/></clipPath></defs><g fill="#0057b7" fill-opacity="1"><g transform="translate(2.759127, 506.919426)"><g><path d="M 6.578125 -57.5 L 48.046875 -57.5 C 52.160156 -57.5 55.445312 -56.265625 57.90625 -53.796875 C 60.375 -51.335938 61.609375 -48.050781 61.609375 -43.9375 L 61.609375 -34.09375 C 61.609375 -31.1875 61.03125 -28.894531 59.875 -27.21875 C 58.726562 -25.550781 57.441406 -24.28125 56.015625 -23.40625 C 54.378906 -22.425781 52.546875 -21.742188 50.515625 -21.359375 L 62.84375 -6.578125 L 62.84375 0 L 50.921875 0 L 34.90625 -20.53125 L 19.71875 -20.53125 L 19.71875 0 L 6.578125 0 Z M 43.125 -32.03125 C 46.6875 -32.03125 48.46875 -33.8125 48.46875 -37.375 L 48.46875 -40.65625 C 48.46875 -44.21875 46.6875 -46 43.125 -46 L 19.71875 -46 L 19.71875 -32.03125 Z M 43.125 -32.03125 "/></g></g></g><g fill="#0057b7" fill-opacity="1"><g transform="translate(77.669161, 506.919426)"><g><path d="M 19.296875 0.828125 C 15.191406 0.828125 11.90625 -0.40625 9.4375 -2.875 C 6.976562 -5.34375 5.75 -8.628906 5.75 -12.734375 L 5.75 -44.765625 C 5.75 -48.867188 6.976562 -52.148438 9.4375 -54.609375 C 11.90625 -57.078125 15.191406 -58.3125 19.296875 -58.3125 L 48.875 -58.3125 C 52.976562 -58.3125 56.257812 -57.078125 58.71875 -54.609375 C 61.1875 -52.148438 62.421875 -48.867188 62.421875 -44.765625 L 62.421875 -12.734375 C 62.421875 -8.628906 61.1875 -5.34375 58.71875 -2.875 C 56.257812 -0.40625 52.976562 0.828125 48.875 0.828125 Z M 43.9375 -10.671875 C 47.5 -10.671875 49.28125 -12.453125 49.28125 -16.015625 L 49.28125 -41.484375 C 49.28125 -45.035156 47.5 -46.8125 43.9375 -46.8125 L 24.234375 -46.8125 C 20.671875 -46.8125 18.890625 -45.035156 18.890625 -41.484375 L 18.890625 -16.015625 C 18.890625 -12.453125 20.671875 -10.671875 24.234375 -10.671875 Z M 43.9375 -10.671875 "/></g></g></g><g fill="#0057b7" fill-opacity="1"><g transform="translate(153.400572, 506.919426)"><g><path d="M 19.71875 0.828125 C 15.601562 0.828125 12.3125 -0.40625 9.84375 -2.875 C 7.382812 -5.34375 6.15625 -8.628906 6.15625 -12.734375 L 6.15625 -57.5 L 19.296875 -57.5 L 19.296875 -16.015625 C 19.296875 -12.453125 21.078125 -10.671875 24.640625 -10.671875 L 44.359375 -10.671875 C 47.910156 -10.671875 49.6875 -12.453125 49.6875 -16.015625 L 49.6875 -57.5 L 62.84375 -57.5 L 62.84375 -12.734375 C 62.84375 -8.628906 61.609375 -5.34375 59.140625 -2.875 C 56.671875 -0.40625 53.382812 0.828125 49.28125 0.828125 Z M 19.71875 0.828125 "/></g></g></g><g fill="#0057b7" fill-opacity="1"><g transform="translate(229.95336, 506.919426)"><g><path d="M 23 -46 L 1.640625 -46 L 1.640625 -57.5 L 57.5 -57.5 L 57.5 -50.109375 L 53.390625 -46 L 36.140625 -46 L 36.140625 0 L 23 0 Z M 23 -46 "/></g></g></g><g fill="#0057b7" fill-opacity="1"><g transform="translate(296.649707, 506.919426)"><g><path d="M 6.578125 -57.5 L 55.859375 -57.5 L 55.859375 -50.109375 L 51.75 -46 L 19.71875 -46 L 19.71875 -34.5 L 46.8125 -34.5 L 46.8125 -23.40625 L 19.71875 -23.40625 L 19.71875 -11.5 L 55.859375 -11.5 L 55.859375 0 L 6.578125 0 Z M 6.578125 -57.5 "/></g></g></g><g fill="#0057b7" fill-opacity="1"><g transform="translate(363.756759, 506.919426)"><g/></g></g><g fill="#0057b7" fill-opacity="1"><g transform="translate(394.31294, 506.919426)"><g><path d="M 6.578125 -57.5 L 48.875 -57.5 C 52.976562 -57.5 56.257812 -56.265625 58.71875 -53.796875 C 61.1875 -51.335938 62.421875 -48.050781 62.421875 -43.9375 L 62.421875 -13.546875 C 62.421875 -9.441406 61.1875 -6.15625 58.71875 -3.6875 C 56.257812 -1.226562 52.976562 0 48.875 0 L 6.578125 0 Z M 43.9375 -11.5 C 47.5 -11.5 49.28125 -13.28125 49.28125 -16.84375 L 49.28125 -40.65625 C 49.28125 -44.21875 47.5 -46 43.9375 -46 L 19.71875 -46 L 19.71875 -11.5 Z M 43.9375 -11.5 "/></g></g></g><g fill="#0057b7" fill-opacity="1"><g transform="translate(470.044352, 506.919426)"><g><path d="M 6.578125 -57.5 L 19.71875 -57.5 L 19.71875 0 L 6.578125 0 Z M 6.578125 -57.5 "/></g></g></g><g fill="#0057b7" fill-opacity="1"><g transform="translate(503.88604, 506.919426)"><g><path d="M 19.296875 0 C 15.191406 0 11.90625 -1.226562 9.4375 -3.6875 C 6.976562 -6.15625 5.75 -9.441406 5.75 -13.546875 L 5.75 -43.9375 C 5.75 -48.050781 6.976562 -51.335938 9.4375 -53.796875 C 11.90625 -56.265625 15.191406 -57.5 19.296875 -57.5 L 57.5 -57.5 L 57.5 -50.109375 L 53.390625 -46 L 24.234375 -46 C 20.671875 -46 18.890625 -44.21875 18.890625 -40.65625 L 18.890625 -16.84375 C 18.890625 -13.28125 20.671875 -11.5 24.234375 -11.5 L 47.640625 -11.5 L 47.640625 -32.03125 L 60.78125 -32.03125 L 60.78125 0 Z M 19.296875 0 "/></g></g></g><g fill="#0057b7" fill-opacity="1"><g transform="translate(577.97472, 506.919426)"><g><path d="M 6.578125 -57.5 L 19.71875 -57.5 L 19.71875 0 L 6.578125 0 Z M 6.578125 -57.5 "/></g></g></g><g fill="#0057b7" fill-opacity="1"><g transform="translate(611.816362, 506.919426)"><g><path d="M 23 -46 L 1.640625 -46 L 1.640625 -57.5 L 57.5 -57.5 L 57.5 -50.109375 L 53.390625 -46 L 36.140625 -46 L 36.140625 0 L 23 0 Z M 23 -46 "/></g></g></g><g fill="#0057b7" fill-opacity="1"><g transform="translate(678.512755, 506.919426)"><g><path d="M 1.234375 -6.578125 L 23.40625 -57.5 L 40.65625 -57.5 L 62.84375 -6.578125 L 62.84375 0 L 50.515625 0 L 46 -11.09375 L 18.078125 -11.09375 L 13.546875 0 L 1.234375 0 Z M 41.484375 -22.171875 L 32.03125 -45.59375 L 22.59375 -22.171875 Z M 41.484375 -22.171875 "/></g></g></g><g fill="#0057b7" fill-opacity="1"><g transform="translate(750.137294, 506.919426)"><g><path d="M 6.578125 -57.5 L 19.71875 -57.5 L 19.71875 -11.90625 L 55.03125 -11.90625 L 55.03125 0 L 6.578125 0 Z M 6.578125 -57.5 "/></g></g></g><g clip-path="url(#8a3f29bb9a)"><path fill="#ff6f3c" d="M 309.421875 412.511719 L 309.421875 380 L 309.257812 380 L 309.257812 225.363281 C 310.191406 225.054688 310.601562 224.808594 311.003906 224.808594 C 349.210938 224.773438 387.4375 224.207031 425.628906 224.957031 C 447.792969 225.394531 464.144531 236.964844 472.792969 257.375 C 481.339844 277.550781 477.652344 296.496094 463.53125 313.332031 C 462.3125 314.785156 461.183594 316.320312 460.617188 317.046875 C 470.800781 327.101562 480.539062 336.722656 490.453125 346.511719 C 490.070312 346.722656 490.503906 346.578125 490.820312 346.296875 C 491.632812 345.570312 492.449219 344.820312 493.179688 344.003906 C 520.121094 313.847656 527.664062 279.234375 512.421875 241.925781 C 496.972656 204.136719 466.992188 183.433594 426.101562 182.417969 C 374.746094 181.144531 323.332031 182.070312 271.945312 182.0625 C 270.855469 182.0625 269.761719 182.148438 268.558594 182.253906 L 268.558594 412.511719 Z M 309.421875 412.511719 " fill-opacity="1" fill-rule="nonzero"/></g><g clip-path="url(#0e8071e8f8)"><path fill="#ff6f3c" d="M 370.664062 412.511719 L 370.664062 319.800781 C 382.128906 331.160156 393.664062 342.578125 405.167969 353.964844 C 413.960938 362.660156 422.734375 371.351562 431.476562 379.992188 L 430.9375 379.992188 L 463.121094 412.511719 L 529.789062 412.511719 C 487.617188 370.535156 445.429688 328.5625 403.0625 286.402344 L 440.453125 286.402344 L 440.453125 246.875 L 332.371094 246.875 L 332.371094 412.511719 Z M 370.664062 412.511719 " fill-opacity="1" fill-rule="nonzero"/></g><path fill="#ff6f3c" d="M 370.929688 319.371094 C 399.925781 348.363281 428.921875 378.675781 458.714844 408.050781 " fill-opacity="1" fill-rule="nonzero"/></svg>